<svg xmlns="http://www.w3.org/2000/svg" viewBox="0 0 777.22 286.07"><defs><style>.cls-1{fill:#333}</style></defs><title>logo</title><g id="Layer_2" data-name="Layer 2"><path class="cls-1" d="M684.47 188.77c11.46.5 22.58 10.46 22.58 10.46s64.29-164 65.8-169.92 6.89-13.15 3-20.94S761.57.18 761.57.18l-69-.18s-1 10.83.81 12.53c12 11.09 7.57 16.67 6.18 22.28-4.24 17.13-12.95 50.21-21.34 81.77a42 42 0 0 0-5.16-16.07c-7.68-13.93-22.41-26.64-42.82-26.64-6.33 0-27.88-.5-57-.25-27.71.24-46.05 16.18-57.51 29.13-10 11.37-17.18 35.85-17.18 35.85s-12.28 48.54-15.1 63.48 1 31.7 1 31.7-4.45 1.66-10.45 3.32-9-.33-12.45-6.31-1.55-15.43-1.55-15.43 24.23-106.22 28.21-126 9.29-38.83 12.45-53.27.58-23.32-3.82-28.79S483.77.75 483.77.75s-54.63.11-60.27 0c-5.17-.09-4.69 0-4.69 3.32s-1 7.45 3.32 9.54c8.71 4.23 9.71 9.21 7.47 20.91-.73 3.79-2.74 13.19-5.39 24.65s-10.62 45-10.62 45a43.47 43.47 0 0 0-16.1-17.76c-7.86-4.64-25.23-8-32.86-8s-21.74 2.16-32.86 8.3-25.72 19.42-31.7 38.84c-4 12.84-15.6 64.23-18.59 80.49s-1.16 27.88-1.16 27.88-6.89 2.57-16.51 5.23-8.38-13.52-7.72-16.68 37.18-181.6 38.82-190.67c2.07-11.45 2-20.83-3.32-26.22S276 .77 276 .77h-64.44s-.08 3.11 0 7.22 3.24 4.36 6 7.59 4.23 7.59 4.11 18.42-12.07 24.52-12.07 24.52L0 266h94.1l28.42-23.32 57.55-.08s-2 17.91-1.66 22.24a45.23 45.23 0 0 0 .81 7.47c2.55 12.74 15.12 13.94 21.1 13.78s18.42-5 29.87-10.62 55.93-22.57 55.93-22.57 1.66 5.48 10.46 12.62 21.58 9 38.17 6.49c23.64-3.52 48.63-22.26 48.63-22.26s-1.05 8.57-.17 12.12c2 8 5 10.45 9.79 14.1 13.09 9.93 28.38 2.82 28.38 2.82L489.09 251a96 96 0 0 0 11.29 12.45c6 5.31 19.25 11.12 31.87 11.78S563 270 563 270l72.64-28.64c-2 14.58 3.82 28.87 16.06 36 16.83 9.77 39.42 2.28 50.45-16.72s6.34-42.33-10.48-52.1c-13.9-8.07-31.73-4.36-43.73 7.89-20.24 8.05-62 24.54-71.08 27.29-12.12 3.65-22.15 1.82-24.81-11.29s9.21-19.67 9.21-19.67l102.17-40.91c-3.56 13.25-5.86 21.78-5.86 21.78s7.97-5.69 26.9-4.86zM182.72 227l-41.32.17 48.29-48.62zm225.69-92.49l-23.73 90.83c-2.93 11.22-13.58 18.16-23.78 15.5s-16.09-13.93-13.16-25.15l23.73-90.83c2.93-11.22 13.58-18.16 23.78-15.5s16.09 13.91 13.16 25.13zm196.83 13.59l-8.08 30.9-43.81 16.7 15-57.25c2.93-11.22 13.58-18.16 23.78-15.5s16.04 13.93 13.11 25.15z" id="Layer_1-2" data-name="Layer 1"/></g></svg>